<?xml version="1.0" standalone="no"?>
<svg xmlns:xlink="http://www.w3.org/1999/xlink" id="wave" style="transform:rotate(0deg); transition: 0.3s" viewBox="0 0 1440 220" version="1.1" xmlns="http://www.w3.org/2000/svg"><defs><linearGradient id="sw-gradient-0" x1="0" x2="0" y1="1" y2="0"><stop stop-color="rgba(255, 114.907, 69.914, 1)" offset="0%"/><stop stop-color="rgba(255, 189.222, 11, 1)" offset="100%"/></linearGradient></defs><path style="transform:translate(0, 0px); opacity:1" fill="url(#sw-gradient-0)" d="M0,154L48,132C96,110,192,66,288,69.7C384,73,480,125,576,128.3C672,132,768,88,864,66C960,44,1056,44,1152,47.7C1248,51,1344,59,1440,55C1536,51,1632,37,1728,33C1824,29,1920,37,2016,66C2112,95,2208,147,2304,139.3C2400,132,2496,66,2592,58.7C2688,51,2784,103,2880,106.3C2976,110,3072,66,3168,62.3C3264,59,3360,95,3456,99C3552,103,3648,73,3744,66C3840,59,3936,73,4032,84.3C4128,95,4224,103,4320,121C4416,139,4512,169,4608,168.7C4704,169,4800,139,4896,128.3C4992,117,5088,125,5184,106.3C5280,88,5376,44,5472,40.3C5568,37,5664,73,5760,106.3C5856,139,5952,169,6048,165C6144,161,6240,125,6336,99C6432,73,6528,59,6624,77C6720,95,6816,147,6864,172.3L6912,198L6912,220L6864,220C6816,220,6720,220,6624,220C6528,220,6432,220,6336,220C6240,220,6144,220,6048,220C5952,220,5856,220,5760,220C5664,220,5568,220,5472,220C5376,220,5280,220,5184,220C5088,220,4992,220,4896,220C4800,220,4704,220,4608,220C4512,220,4416,220,4320,220C4224,220,4128,220,4032,220C3936,220,3840,220,3744,220C3648,220,3552,220,3456,220C3360,220,3264,220,3168,220C3072,220,2976,220,2880,220C2784,220,2688,220,2592,220C2496,220,2400,220,2304,220C2208,220,2112,220,2016,220C1920,220,1824,220,1728,220C1632,220,1536,220,1440,220C1344,220,1248,220,1152,220C1056,220,960,220,864,220C768,220,672,220,576,220C480,220,384,220,288,220C192,220,96,220,48,220L0,220Z"/><defs><linearGradient id="sw-gradient-1" x1="0" x2="0" y1="1" y2="0"><stop stop-color="rgba(243, 200.337, 62, 1)" offset="0%"/><stop stop-color="rgba(239.383, 116.028, 65.632, 1)" offset="100%"/></linearGradient></defs><path style="transform:translate(0, 50px); opacity:0.9" fill="url(#sw-gradient-1)" d="M0,44L48,40.3C96,37,192,29,288,55C384,81,480,139,576,157.7C672,176,768,154,864,132C960,110,1056,88,1152,84.3C1248,81,1344,95,1440,117.3C1536,139,1632,169,1728,165C1824,161,1920,125,2016,113.7C2112,103,2208,117,2304,121C2400,125,2496,117,2592,99C2688,81,2784,51,2880,62.3C2976,73,3072,125,3168,124.7C3264,125,3360,73,3456,77C3552,81,3648,139,3744,146.7C3840,154,3936,110,4032,80.7C4128,51,4224,37,4320,51.3C4416,66,4512,110,4608,139.3C4704,169,4800,183,4896,161.3C4992,139,5088,81,5184,80.7C5280,81,5376,139,5472,161.3C5568,183,5664,169,5760,161.3C5856,154,5952,154,6048,150.3C6144,147,6240,139,6336,117.3C6432,95,6528,59,6624,36.7C6720,15,6816,7,6864,3.7L6912,0L6912,220L6864,220C6816,220,6720,220,6624,220C6528,220,6432,220,6336,220C6240,220,6144,220,6048,220C5952,220,5856,220,5760,220C5664,220,5568,220,5472,220C5376,220,5280,220,5184,220C5088,220,4992,220,4896,220C4800,220,4704,220,4608,220C4512,220,4416,220,4320,220C4224,220,4128,220,4032,220C3936,220,3840,220,3744,220C3648,220,3552,220,3456,220C3360,220,3264,220,3168,220C3072,220,2976,220,2880,220C2784,220,2688,220,2592,220C2496,220,2400,220,2304,220C2208,220,2112,220,2016,220C1920,220,1824,220,1728,220C1632,220,1536,220,1440,220C1344,220,1248,220,1152,220C1056,220,960,220,864,220C768,220,672,220,576,220C480,220,384,220,288,220C192,220,96,220,48,220L0,220Z"/></svg>