<?xml version="1.0" standalone="no"?>
<svg xmlns:xlink="http://www.w3.org/1999/xlink" id="wave" style="transform:rotate(0deg); transition: 0.3s" viewBox="0 0 1440 130" version="1.1" xmlns="http://www.w3.org/2000/svg"><defs><linearGradient id="sw-gradient-0" x1="0" x2="0" y1="1" y2="0"><stop stop-color="rgba(255, 61.989, 0, 1)" offset="0%"/><stop stop-color="rgba(255, 255, 255, 1)" offset="100%"/></linearGradient></defs><path style="transform:translate(0, 0px); opacity:1" fill="url(#sw-gradient-0)" d="M0,117L80,101.8C160,87,320,56,480,43.3C640,30,800,35,960,45.5C1120,56,1280,74,1440,69.3C1600,65,1760,39,1920,34.7C2080,30,2240,48,2400,60.7C2560,74,2720,82,2880,80.2C3040,78,3200,65,3360,62.8C3520,61,3680,69,3840,80.2C4000,91,4160,104,4320,104C4480,104,4640,91,4800,73.7C4960,56,5120,35,5280,34.7C5440,35,5600,56,5760,69.3C5920,82,6080,87,6240,82.3C6400,78,6560,65,6720,65C6880,65,7040,78,7200,82.3C7360,87,7520,82,7680,84.5C7840,87,8000,95,8160,88.8C8320,82,8480,61,8640,45.5C8800,30,8960,22,9120,34.7C9280,48,9440,82,9600,80.2C9760,78,9920,39,10080,26C10240,13,10400,26,10560,45.5C10720,65,10880,91,11040,104C11200,117,11360,117,11440,117L11520,117L11520,130L11440,130C11360,130,11200,130,11040,130C10880,130,10720,130,10560,130C10400,130,10240,130,10080,130C9920,130,9760,130,9600,130C9440,130,9280,130,9120,130C8960,130,8800,130,8640,130C8480,130,8320,130,8160,130C8000,130,7840,130,7680,130C7520,130,7360,130,7200,130C7040,130,6880,130,6720,130C6560,130,6400,130,6240,130C6080,130,5920,130,5760,130C5600,130,5440,130,5280,130C5120,130,4960,130,4800,130C4640,130,4480,130,4320,130C4160,130,4000,130,3840,130C3680,130,3520,130,3360,130C3200,130,3040,130,2880,130C2720,130,2560,130,2400,130C2240,130,2080,130,1920,130C1760,130,1600,130,1440,130C1280,130,1120,130,960,130C800,130,640,130,480,130C320,130,160,130,80,130L0,130Z"/></svg>